<svg width="28" height="28" viewBox="0 0 28 28" fill="none" xmlns="http://www.w3.org/2000/svg">
<g clip-path="url(#clip0_211_770)">
<path d="M20.0559 5.58594C20.4954 5.58594 20.8557 5.2168 20.8557 4.78613V2.9668C20.8557 2.52734 20.4954 2.16699 20.0559 2.16699C19.6165 2.16699 19.2561 2.52734 19.2561 2.9668V4.78613C19.2561 5.2168 19.6165 5.58594 20.0559 5.58594ZM14.8352 7.28223C15.1516 7.59863 15.6702 7.59863 15.969 7.29102C16.2678 6.9834 16.2678 6.48242 15.9602 6.16602L14.6682 4.87402C14.3606 4.55762 13.8508 4.56641 13.552 4.87402C13.2444 5.17285 13.2444 5.68262 13.552 5.99902L14.8352 7.28223ZM24.1516 7.29102C24.4504 7.59863 24.9778 7.59863 25.2854 7.28223L26.5686 5.99902C26.8762 5.69141 26.8762 5.18164 26.5686 4.87402C26.261 4.56641 25.76 4.56641 25.4524 4.87402L24.1516 6.16602C23.844 6.47363 23.8528 6.9834 24.1516 7.29102ZM22.4114 15.1309C23.6682 14.2783 24.4592 12.9248 24.4592 11.3779C24.4592 8.93457 22.4993 6.97461 20.0647 6.97461C18.4563 6.97461 17.0588 7.83594 16.3293 9.10156C16.7073 9.47949 17.0325 9.91016 17.3049 10.4287C20.1526 10.6396 22.1125 12.4766 22.4114 15.1309ZM26.6389 12.1777H28.4583C28.8977 12.1777 29.2493 11.8174 29.2493 11.3779C29.2581 10.9385 28.8977 10.5781 28.4583 10.5781H26.6389C26.2083 10.5781 25.8391 10.9385 25.8391 11.3779C25.8391 11.8174 26.2083 12.1777 26.6389 12.1777ZM25.4436 17.8994C25.76 18.207 26.261 18.1982 26.5686 17.8906C26.8762 17.583 26.8762 17.082 26.5686 16.7744L25.2766 15.4824C24.969 15.1836 24.4592 15.1748 24.1516 15.4824C23.844 15.79 23.844 16.2998 24.1516 16.6074L25.4436 17.8994Z" fill="#F8D74A"/>
<path d="M7.03906 20.2725H16.8213C19.3262 20.2725 21.2598 18.3652 21.2598 15.8779C21.2598 13.3818 19.2646 11.501 16.584 11.4922C15.5908 9.60254 13.7891 8.36328 11.4951 8.36328C8.56836 8.36328 6.10742 10.6133 5.84375 13.5576C4.31445 13.9971 3.33887 15.2891 3.33887 16.8799C3.33887 18.8926 4.8418 20.2725 7.03906 20.2725Z" fill="white"/>
</g>
<defs>
<clipPath id="clip0_211_770">
<rect width="28" height="28" fill="white"/>
</clipPath>
</defs>
</svg>
