<svg width="23" height="23" viewBox="0 0 23 23" fill="none" xmlns="http://www.w3.org/2000/svg">
<path d="M10.8484 19.948C12.9339 19.948 14.6258 18.2631 14.6258 16.1706C14.6258 15.1003 14.1908 14.1611 13.369 13.4015C13.224 13.2702 13.1895 13.1874 13.1895 12.994L13.1964 6.94463C13.1964 5.39775 12.2503 4.3688 10.8484 4.3688C9.43276 4.3688 8.47287 5.39775 8.47287 6.94463L8.48668 12.994C8.48668 13.1874 8.45215 13.2702 8.30713 13.4015C7.47845 14.1542 7.05029 15.1003 7.05029 16.1706C7.05029 18.2631 8.74219 19.948 10.8484 19.948ZM10.8484 18.7465C9.41204 18.7465 8.25879 17.5863 8.25879 16.1568C8.25879 15.2798 8.67313 14.5202 9.39823 14.0299C9.6123 13.8918 9.69517 13.7605 9.69517 13.4843V6.99297C9.69517 6.12976 10.1579 5.5773 10.8484 5.5773C11.5183 5.5773 11.981 6.12976 11.981 6.99297V13.4843C11.981 13.7605 12.0638 13.8918 12.2779 14.0299C13.003 14.5202 13.4173 15.2798 13.4173 16.1568C13.4173 17.5863 12.2641 18.7465 10.8484 18.7465ZM14.5153 7.06893H16.0277C16.2901 7.06893 16.4558 6.87557 16.4558 6.64768C16.4558 6.4198 16.2901 6.22644 16.0277 6.22644H14.5153C14.2529 6.22644 14.0803 6.4198 14.0803 6.64768C14.0803 6.87557 14.2529 7.06893 14.5153 7.06893ZM14.5153 8.98181H16.0277C16.2901 8.98181 16.4558 8.78845 16.4558 8.56056C16.4558 8.33267 16.2901 8.13931 16.0277 8.13931H14.5153C14.2529 8.13931 14.0803 8.33267 14.0803 8.56056C14.0803 8.78845 14.2529 8.98181 14.5153 8.98181ZM14.5153 10.9085H16.0277C16.2901 10.9085 16.4558 10.7151 16.4558 10.4872C16.4558 10.2594 16.2901 10.066 16.0277 10.066H14.5153C14.2529 10.066 14.0803 10.2594 14.0803 10.4872C14.0803 10.7151 14.2529 10.9085 14.5153 10.9085ZM10.8346 17.8142C11.7531 17.8142 12.492 17.0753 12.492 16.1499C12.492 15.5146 12.1329 14.9829 11.6011 14.6997C11.3802 14.5823 11.3111 14.4995 11.3111 14.168V10.6392C11.3111 10.287 11.1039 10.066 10.8346 10.066C10.5722 10.066 10.365 10.287 10.365 10.6392V14.168C10.365 14.4995 10.296 14.5823 10.075 14.6997C9.54325 14.9829 9.18415 15.5146 9.18415 16.1499C9.18415 17.0753 9.92306 17.8142 10.8346 17.8142ZM14.5153 12.8283H16.0277C16.2901 12.8283 16.4558 12.6349 16.4558 12.407C16.4558 12.1791 16.2901 11.9858 16.0277 11.9858H14.5153C14.2529 11.9858 14.0803 12.1791 14.0803 12.407C14.0803 12.6349 14.2529 12.8283 14.5153 12.8283Z" fill="white"/>
</svg>
