<svg xmlns="http://www.w3.org/2000/svg" width="23" height="23" viewBox="0 0 23 23" fill="none">
<path d="M5.20863 16.742C6.56215 16.742 7.45989 16.2655 9.2968 15.3816C9.95975 15.0639 10.4708 14.8084 10.8989 14.6219C11.4099 16.742 13.3366 18.3027 15.6777 18.3027C18.4054 18.3027 20.5807 16.1688 20.5807 13.5032C20.5807 12.0323 19.8487 10.5821 19.2203 9.40813L16.7135 4.71916C16.4718 4.29101 16.1196 4.07693 15.6777 4.07693C15.2219 4.07693 14.8697 4.29101 14.6418 4.71916L13.3643 7.10163C13.2054 7.08091 13.0397 7.07401 12.874 7.07401C11.5066 7.07401 10.5951 7.5574 8.75816 8.44133C6.89362 9.33907 6.25139 9.68436 5.20863 9.68436C4.53188 9.68436 3.92418 9.51862 3.24051 9.10428C2.92285 8.92473 2.60519 9.03522 2.43945 9.28383C2.253 9.56696 2.28753 9.9813 2.69496 10.2161C3.41315 10.6512 4.25565 10.9205 5.20863 10.9205C6.56215 10.9205 7.45989 10.444 9.2968 9.56005C11.0647 8.71065 11.7483 8.35156 12.7151 8.31703L12.1281 9.40813C12.0107 9.62911 11.8864 9.8639 11.769 10.1056C10.8989 10.299 10.0633 10.7202 8.75816 11.3486C6.89362 12.2464 6.25139 12.5917 5.20863 12.5917C4.53188 12.5917 3.92418 12.4259 3.24051 12.0185C2.92285 11.8389 2.60519 11.9425 2.43945 12.1911C2.253 12.4812 2.28062 12.8817 2.69496 13.1234C3.41315 13.5584 4.25565 13.8278 5.20863 13.8278C6.56215 13.8278 7.45989 13.3513 9.2968 12.4743C10.0771 12.0944 10.6434 11.8182 11.113 11.618C10.9265 12.1704 10.7953 12.7505 10.7746 13.3306C10.2014 13.5584 9.57303 13.8692 8.75816 14.2559C6.89362 15.1537 6.25139 15.5059 5.20863 15.5059C4.53188 15.5059 3.92418 15.3401 3.24051 14.9258C2.91594 14.7393 2.59138 14.8636 2.42564 15.1191C2.253 15.4023 2.29443 15.8028 2.69496 16.0376C3.41315 16.4657 4.25565 16.742 5.20863 16.742ZM15.6777 16.9284C13.9512 16.9284 12.5287 15.7614 12.2041 14.1869C12.4251 14.1454 12.6392 14.1316 12.874 14.1316C13.6198 14.1316 14.2413 14.3388 14.8835 14.7255C15.1943 14.9051 15.5188 14.7946 15.6846 14.546C15.871 14.2628 15.8296 13.8485 15.4291 13.6137C14.6487 13.1372 13.7924 12.8955 12.874 12.8955C12.6323 12.8955 12.4044 12.9093 12.1834 12.9369C12.2732 12.3638 12.4872 11.7975 12.7566 11.2243C12.798 11.2243 12.8325 11.2243 12.874 11.2243C13.6198 11.2243 14.2413 11.4246 14.8835 11.8113C15.2012 11.9978 15.5257 11.8804 15.6915 11.6249C15.871 11.3417 15.8296 10.9343 15.4291 10.6995C14.7937 10.3128 14.1101 10.0849 13.3781 10.0089L14.1653 8.55182C14.407 8.6416 14.6418 8.75899 14.8835 8.90401C15.1943 9.08356 15.5119 8.97307 15.6846 8.73137C15.8779 8.44824 15.8434 8.0339 15.4291 7.7922C15.2081 7.66099 14.9871 7.54359 14.7523 7.44691L15.6086 5.8586C15.6431 5.78264 15.7191 5.78955 15.7536 5.8586L17.998 10.0573C18.6264 11.2312 19.2134 12.3361 19.2134 13.5032C19.2134 15.4161 17.6389 16.9284 15.6777 16.9284Z" fill="white"/>
</svg>