<svg width="23" height="23" viewBox="0 0 23 23" fill="none" xmlns="http://www.w3.org/2000/svg">
<path d="M12.458 4.23002C12.458 3.8502 12.1334 3.52563 11.7536 3.52563C11.3738 3.52563 11.0562 3.8502 11.0562 4.23002V5.63187C11.0562 6.01168 11.3738 6.32935 11.7536 6.32935C12.1334 6.32935 12.458 6.01168 12.458 5.63187V4.23002ZM15.2203 6.79893C14.951 7.06825 14.951 7.51712 15.2272 7.78645C15.4896 8.05577 15.9454 8.05577 16.2147 7.77954L17.2091 6.78512C17.4784 6.52271 17.4784 6.06002 17.2091 5.7907C16.9398 5.52829 16.4909 5.52829 16.2216 5.79761L15.2203 6.79893ZM7.29255 7.77954C7.55497 8.05577 8.01074 8.05577 8.28006 7.78645C8.54939 7.52403 8.54939 7.06135 8.28697 6.79893L7.29255 5.79761C7.03013 5.53519 6.57436 5.52829 6.30504 5.7907C6.03571 6.06002 6.03571 6.52271 6.29813 6.77822L7.29255 7.77954ZM11.7536 7.6069C9.76479 7.6069 8.11433 9.25045 8.11433 11.2462C8.11433 13.2419 9.76479 14.8855 11.7536 14.8855C13.7425 14.8855 15.386 13.2419 15.386 11.2462C15.386 9.25045 13.7425 7.6069 11.7536 7.6069ZM18.7629 11.9506C19.1427 11.9506 19.4604 11.626 19.4604 11.2462C19.4604 10.8664 19.1427 10.5487 18.7629 10.5487H17.361C16.9812 10.5487 16.6636 10.8664 16.6636 11.2462C16.6636 11.626 16.9812 11.9506 17.361 11.9506H18.7629ZM4.75126 10.5487C4.36454 10.5487 4.04688 10.8664 4.04688 11.2462C4.04688 11.626 4.36454 11.9506 4.75126 11.9506H6.14621C6.52602 11.9506 6.85059 11.626 6.85059 11.2462C6.85059 10.8664 6.52602 10.5487 6.14621 10.5487H4.75126ZM16.2078 14.7129C15.9385 14.4435 15.4896 14.4504 15.2203 14.7198C14.951 14.9822 14.951 15.431 15.2272 15.7073L16.2285 16.7017C16.4909 16.971 16.9467 16.9641 17.216 16.6948C17.4784 16.4255 17.4784 15.9766 17.2091 15.7073L16.2078 14.7129ZM6.29813 15.7004C6.02881 15.9697 6.0219 16.4255 6.28432 16.6879C6.55364 16.9572 7.01632 16.9641 7.27874 16.7017L8.28006 15.7073C8.54939 15.438 8.54939 14.9822 8.28697 14.7198C8.01765 14.4504 7.56187 14.4504 7.29255 14.7129L6.29813 15.7004ZM12.458 16.8605C12.458 16.4807 12.1334 16.1631 11.7536 16.1631C11.3738 16.1631 11.0562 16.4807 11.0562 16.8605V18.2624C11.0562 18.6422 11.3738 18.9668 11.7536 18.9668C12.1334 18.9668 12.458 18.6422 12.458 18.2624V16.8605Z" fill="white"/>
</svg>
