<svg width="29" height="29" viewBox="0 0 29 29" fill="none" xmlns="http://www.w3.org/2000/svg">
<path d="M14.4585 21.6586C21.5952 21.6586 26.4116 15.9018 26.4116 14.1176C26.4116 12.3422 21.5864 6.58539 14.4585 6.58539C7.42725 6.58539 2.50537 12.3422 2.50537 14.1176C2.50537 15.9018 7.41846 21.6586 14.4585 21.6586ZM14.4673 18.9164C11.7866 18.9164 9.65088 16.728 9.64209 14.1264C9.6333 11.437 11.7866 9.32758 14.4673 9.32758C17.1304 9.32758 19.2837 11.4457 19.2837 14.1264C19.2837 16.728 17.1304 18.9164 14.4673 18.9164ZM14.4673 15.9106C15.4517 15.9106 16.269 15.102 16.269 14.1264C16.269 13.142 15.4517 12.3246 14.4673 12.3246C13.4653 12.3246 12.6567 13.142 12.6567 14.1264C12.6567 15.102 13.4653 15.9106 14.4673 15.9106Z" fill="white"/>
</svg>
